<?xml version="1.0" encoding="UTF-8" standalone="no"?>
<svg
   width="40"
   height="40"
   viewBox="0 0 40 40"
   version="1.1"
   id="svg1"
   sodipodi:docname="Arizona.svg"
   inkscape:version="1.4 (e7c3feb100, 2024-10-09)"
   xmlns:inkscape="http://www.inkscape.org/namespaces/inkscape"
   xmlns:sodipodi="http://sodipodi.sourceforge.net/DTD/sodipodi-0.dtd"
   xmlns="http://www.w3.org/2000/svg"
   xmlns:svg="http://www.w3.org/2000/svg">
  <sodipodi:namedview
     id="namedview1"
     pagecolor="#505050"
     bordercolor="#ffffff"
     borderopacity="1"
     inkscape:showpageshadow="0"
     inkscape:pageopacity="0"
     inkscape:pagecheckerboard="1"
     inkscape:deskcolor="#d1d1d1"
     inkscape:zoom="22.627417"
     inkscape:cx="14.738757"
     inkscape:cy="20.484"
     inkscape:current-layer="svg1" />
  <defs
     id="defs1">
    <linearGradient
       id="swatch1"
       inkscape:swatch="solid">
      <stop
         style="stop-color:#000000;stop-opacity:1;"
         offset="0"
         id="stop1" />
    </linearGradient>
    <inkscape:path-effect
       effect="fillet_chamfer"
       id="path-effect1"
       is_visible="true"
       lpeversion="1"
       nodesatellites_param="F,0,0,1,0,3.98125,0,1 @ F,0,0,1,0,4.0375,0,1 @ F,0,0,1,0,0,0,1 @ F,0,0,1,0,0,0,1"
       radius="0"
       unit="px"
       method="auto"
       mode="F"
       chamfer_steps="1"
       flexible="false"
       use_knot_distance="true"
       apply_no_radius="true"
       apply_with_radius="true"
       only_selected="false"
       hide_knots="false" />
    <inkscape:path-effect
       effect="fillet_chamfer"
       id="path-effect5"
       is_visible="true"
       lpeversion="1"
       nodesatellites_param="F,0,0,1,0,3.9513006,0,1 @ F,0,0,1,0,3.9642065,0,1 @ F,0,0,1,0,0,0,1 @ F,0,0,1,0,0,0,1"
       radius="0"
       unit="px"
       method="auto"
       mode="F"
       chamfer_steps="1"
       flexible="false"
       use_knot_distance="true"
       apply_no_radius="true"
       apply_with_radius="true"
       only_selected="false"
       hide_knots="false" />
    <inkscape:path-effect
       effect="fillet_chamfer"
       id="path-effect4"
       is_visible="true"
       lpeversion="1"
       nodesatellites_param="F,0,0,1,0,3.9736621,0,1 @ F,0,0,1,0,0,0,1 @ F,0,0,1,0,0,0,1 @ F,0,0,1,0,0,0,1"
       radius="0"
       unit="px"
       method="auto"
       mode="F"
       chamfer_steps="1"
       flexible="false"
       use_knot_distance="true"
       apply_no_radius="true"
       apply_with_radius="true"
       only_selected="false"
       hide_knots="false" />
    <inkscape:path-effect
       effect="fillet_chamfer"
       id="path-effect3"
       is_visible="true"
       lpeversion="1"
       nodesatellites_param="F,0,0,1,0,0,0,1 @ F,0,0,1,0,0,0,1 @ F,0,0,1,0,4.0070241,0,1 @ F,0,0,1,0,4.0159054,0,1"
       radius="0"
       unit="px"
       method="auto"
       mode="F"
       chamfer_steps="1"
       flexible="false"
       use_knot_distance="true"
       apply_no_radius="true"
       apply_with_radius="true"
       only_selected="false"
       hide_knots="false" />
    <inkscape:path-effect
       effect="fillet_chamfer"
       id="path-effect2"
       is_visible="true"
       lpeversion="1"
       nodesatellites_param="F,0,0,1,0,0,0,1 @ F,0,0,1,0,0,0,1 @ F,0,0,1,0,0,0,1 @ F,0,0,1,0,0,0,1"
       radius="0"
       unit="px"
       method="auto"
       mode="F"
       chamfer_steps="1"
       flexible="false"
       use_knot_distance="true"
       apply_no_radius="true"
       apply_with_radius="true"
       only_selected="false"
       hide_knots="false" />
    <clipPath
       id="clip-European">
      <rect
         width="40"
         height="40"
         id="rect1" />
    </clipPath>
    <inkscape:path-effect
       effect="fillet_chamfer"
       id="path-effect4-7"
       is_visible="true"
       lpeversion="1"
       nodesatellites_param="F,0,0,1,0,0,0,1 @ F,0,0,1,0,2.7335398,0,1 @ F,0,0,1,0,0,0,1 @ F,0,0,1,0,0,0,1"
       radius="0"
       unit="px"
       method="auto"
       mode="F"
       chamfer_steps="1"
       flexible="false"
       use_knot_distance="true"
       apply_no_radius="true"
       apply_with_radius="true"
       only_selected="false"
       hide_knots="false" />
  </defs>
  <rect
     id="Rectangle_4426"
     data-name="Rectangle 4426"
     width="32"
     height="32"
     rx="4"
     fill="#039"
     style="fill:#0a3161;fill-opacity:1"
     transform="translate(4,4)" />
  <path
     d="M 20,20 22.105469,4.0000001 17.894531,4 Z"
     style="fill:#b31929;fill-opacity:1;stroke:#241f31;stroke-width:0;stroke-linecap:round"
     id="path20"
     sodipodi:nodetypes="cccc" />
  <path
     d="M 20,20 14.355469,4 H 9.5253906 Z"
     style="fill:#b31929;stroke:#241f31;stroke-width:0;stroke-linecap:round;fill-opacity:1"
     id="path18" />
  <path
     d="M 20,20 5.1621094,5.2382812 A 3.98125,3.98125 0 0 0 4,7.9804687 v 2.3769533 z"
     style="fill:#b31929;stroke:#241f31;stroke-width:0;stroke-linecap:round;fill-opacity:1"
     id="path16" />
  <path
     d="M 20,20 4,14.447266 V 20 Z"
     style="fill:#b31929;stroke:#241f31;stroke-width:0;stroke-linecap:round;fill-opacity:1"
     id="path14" />
  <path
     sodipodi:type="star"
     style="display:none;fill:#f5c211;fill-opacity:0.626929;stroke-linecap:round;stroke-linejoin:round;paint-order:stroke fill markers"
     id="path1"
     inkscape:flatsided="false"
     sodipodi:sides="14"
     sodipodi:cx="20"
     sodipodi:cy="20"
     sodipodi:r1="10.175261"
     sodipodi:r2="25.438152"
     sodipodi:arg1="-1.5707963"
     sodipodi:arg2="-1.3463968"
     inkscape:rounded="-0.0037893326"
     inkscape:randomized="0"
     d="m 20,9.8247395 c -0.05943,0 5.718458,-14.6118805 5.660523,-14.6251039 C 25.602587,-4.8135879 24.468421,10.858191 24.41488,10.832407 24.36134,10.806623 35.90689,0.1487037 35.86043,0.11165248 35.813969,0.07460127 27.99239,13.70229 27.955339,13.655829 27.918288,13.609368 42.944768,9.0163411 42.918984,8.9628005 42.8932,8.90926 29.933369,17.793727 29.920146,17.735792 c -0.01322,-0.05794 15.518006,2.323635 15.518006,2.264209 0,-0.05943 -15.53123,2.322143 -15.518007,2.264208 0.01322,-0.05794 12.973054,8.826533 12.998838,8.772993 0.02578,-0.05354 -15.000695,-4.64657 -14.963644,-4.693031 0.03705,-0.04646 7.858628,13.581229 7.905089,13.544178 0.04646,-0.03705 -11.499089,-10.694972 -11.445548,-10.720756 0.05354,-0.02578 1.187705,15.645995 1.24564,15.632772 C 25.718456,44.787142 19.940574,30.175261 20,30.175261 c 0.05943,0 -5.718458,14.61188 -5.660523,14.625103 0.05794,0.01322 1.192102,-15.658555 1.245643,-15.632771 0.05354,0.02578 -11.4920103,10.683703 -11.4455496,10.720755 0.046461,0.03705 7.8680396,-13.590638 7.9050906,-13.544177 0.03705,0.04646 -14.9894286,4.639488 -14.9636449,4.693028 0.025784,0.05354 12.9856149,-8.830926 12.9988379,-8.772991 0.01322,0.05794 -15.5180063,-2.323635 -15.5180063,-2.264209 0,0.05943 15.5312303,-2.322143 15.5180073,-2.264208 C 10.066631,17.793727 -2.893199,8.9092576 -2.9189827,8.9627982 -2.9447665,9.0163387 12.081712,13.609368 12.044661,13.655829 12.00761,13.702289 4.1860332,0.07459964 4.1395725,0.11165085 4.0931117,0.14870206 15.638661,10.806623 15.58512,10.832407 15.53158,10.858191 14.397415,-4.8135884 14.33948,-4.800365 14.281544,-4.7871416 20.059426,9.8247395 20,9.8247395 Z"
     inkscape:transform-center-y="-1.7767535"
     transform="rotate(5.361158,19.999999,20.000002)"
     inkscape:transform-center-x="-0.16673719" />
  <path
     sodipodi:type="star"
     style="display:none;fill:#f5c211;fill-opacity:0.626929;stroke-linecap:round;stroke-linejoin:round;paint-order:stroke fill markers"
     id="path1-7"
     inkscape:flatsided="false"
     sodipodi:sides="14"
     sodipodi:cx="20"
     sodipodi:cy="20"
     sodipodi:r1="10.175261"
     sodipodi:r2="25.438152"
     sodipodi:arg1="-1.5707963"
     sodipodi:arg2="-1.3463968"
     inkscape:rounded="-0.0037893326"
     inkscape:randomized="0"
     d="m 20,9.8247391 c -0.05943,0 5.718458,-14.6118804 5.660522,-14.6251039 C 25.602587,-4.8135882 24.46842,10.858191 24.41488,10.832407 24.361339,10.806623 35.90689,0.14870335 35.860429,0.11165214 35.813968,0.07460093 27.99239,13.702289 27.955339,13.655829 27.918288,13.609368 42.944767,9.0163407 42.918983,8.9628002 42.8932,8.9092596 29.933369,17.793727 29.920145,17.735791 c -0.01322,-0.05794 15.518007,2.323635 15.518007,2.26421 0,-0.05943 -15.53123,2.322143 -15.518007,2.264207 0.01322,-0.05794 12.973054,8.826534 12.998837,8.772993 0.02578,-0.05354 -15.000695,-4.646569 -14.963644,-4.69303 0.03705,-0.04646 7.858628,13.581229 7.905089,13.544178 0.04646,-0.03705 -11.499088,-10.694972 -11.445548,-10.720756 0.05354,-0.02578 1.187705,15.645995 1.245641,15.632772 0.05793,-0.01322 -5.719946,-14.625105 -5.660521,-14.625105 0.05943,0 -5.718458,14.611881 -5.660522,14.625104 0.05793,0.01322 1.192102,-15.658555 1.245642,-15.632771 0.05354,0.02578 -11.4920097,10.683703 -11.445549,10.720754 0.046461,0.03705 7.868039,-13.590637 7.90509,-13.544176 0.03705,0.04646 -14.9894281,4.639488 -14.9636443,4.693028 0.025784,0.05354 12.9856153,-8.830927 12.9988383,-8.772991 0.01322,0.05794 -15.5180067,-2.323635 -15.5180067,-2.26421 0,0.05943 15.5312307,-2.322143 15.5180067,-2.264207 C 10.066631,17.793727 -2.8931994,8.9092573 -2.9189832,8.9627978 -2.9447669,9.0163384 12.081712,13.609368 12.044661,13.655828 12.007609,13.702289 4.1860328,0.0745993 4.1395721,0.11165051 4.0931113,0.14870172 15.63866,10.806623 15.58512,10.832407 15.531579,10.85819 14.397415,-4.8135888 14.339479,-4.8003654 14.281544,-4.7871419 20.059425,9.8247391 20,9.8247391 Z"
     inkscape:transform-center-y="-1.7728224"
     transform="rotate(-6.575015,20.000001,19.999998)"
     inkscape:transform-center-x="0.20433923" />
  <path
     d="M 20,20 4,10.357422 v 4.089844 z"
     style="fill:#f5c211;stroke-linecap:round;stroke-linejoin:round;paint-order:stroke fill markers"
     id="path15" />
  <path
     d="M 20,20 9.5253906,4 H 7.9804687 A 3.98125,3.98125 0 0 0 5.1621094,5.2382812 Z"
     style="fill:#f5c211;stroke-linecap:round;stroke-linejoin:round;paint-order:stroke fill markers"
     id="path17" />
  <path
     d="M 20,20 17.894531,4 h -3.539062 z"
     style="fill:#f5c211;stroke-linecap:round;stroke-linejoin:round;paint-order:stroke fill markers"
     id="path19" />
  <path
     d="M 20,20 25.644531,4.0000001 h 4.830078 z"
     style="fill:#b31929;fill-opacity:1;stroke:#241f31;stroke-width:0;stroke-linecap:round"
     id="path18-5" />
  <path
     d="M 20,20 34.837891,5.2382811 A 3.9812502,3.98125 0 0 1 36,7.9804691 v 2.3769529 z"
     style="fill:#b31929;fill-opacity:1;stroke:#241f31;stroke-width:0;stroke-linecap:round"
     id="path16-3" />
  <path
     d="M 20,20 36,14.447266 V 20 Z"
     style="fill:#b31929;fill-opacity:1;stroke:#241f31;stroke-width:0;stroke-linecap:round"
     id="path14-5" />
  <path
     d="m 20,20 16,-9.642578 v 4.089844 z"
     style="fill:#f5c211;stroke-width:1;stroke-linecap:round;stroke-linejoin:round;paint-order:stroke fill markers"
     id="path15-6" />
  <path
     d="M 20,20 30.474609,4.0000001 h 1.544922 a 3.9812502,3.98125 0 0 1 2.81836,1.238281 z"
     style="fill:#f5c211;stroke-width:1;stroke-linecap:round;stroke-linejoin:round;paint-order:stroke fill markers"
     id="path17-2" />
  <path
     d="M 20,20 22.105469,4.0000001 h 3.539062 z"
     style="fill:#f5c211;stroke-width:1;stroke-linecap:round;stroke-linejoin:round;paint-order:stroke fill markers"
     id="path19-9" />
  <g
     id="path6"
     inkscape:transform-center-y="-0.85730547"
     transform="matrix(1.3819055,0,0,1.3819055,7.7855656,7.8255996)">
    <path
       style="display:inline;fill:#b31929;stroke-linecap:round;stroke-linejoin:round;paint-order:stroke fill markers;fill-opacity:1"
       d="M 8.8378906,1.8476562 C 8.6847793,1.8483556 8.5486808,1.9453454 8.4980469,2.0898438 L 7.0527344,6.2480469 2.6523438,6.3378906 C 2.3119627,6.3471315 2.1716072,6.7785949 2.4414063,6.9863281 l 2.3128286,1.8235365 c 4.0845999,0 4.0845999,0 8.1692001,0 L 15.236328,6.9863281 C 15.506127,6.778595 15.365772,6.3471319 15.025391,6.3378906 L 10.625,6.2480469 9.1796875,2.0898438 C 9.1288153,1.9446703 8.9917195,1.847528 8.8378906,1.8476562 Z"
       id="path2"
       sodipodi:nodetypes="cccccccccccc" />
    <path
       style="fill:#f2840b;stroke-linecap:round;stroke-linejoin:round;paint-order:stroke fill markers;fill-opacity:1"
       d="m 8.8388349,2.209558 1.5274641,4.3943199 4.651259,0.094786 -3.707234,2.8106242 1.347172,4.4529004 L 8.8388348,11.304929 5.0201736,13.962188 6.3673457,9.5092876 2.6601116,6.6986631 7.3113705,6.6038779 Z"
       id="path3" />
  </g>
</svg>
