<?xml version="1.0" encoding="UTF-8" standalone="no"?>
<svg
   width="40"
   height="40"
   viewBox="0 0 40 40"
   version="1.1"
   id="svg1"
   sodipodi:docname="SanFransiscoSet Simplified.svg"
   inkscape:version="1.4 (e7c3feb100, 2024-10-09)"
   xmlns:inkscape="http://www.inkscape.org/namespaces/inkscape"
   xmlns:sodipodi="http://sodipodi.sourceforge.net/DTD/sodipodi-0.dtd"
   xmlns="http://www.w3.org/2000/svg"
   xmlns:svg="http://www.w3.org/2000/svg">
  <sodipodi:namedview
     id="namedview1"
     pagecolor="#505050"
     bordercolor="#ffffff"
     borderopacity="1"
     inkscape:showpageshadow="0"
     inkscape:pageopacity="0"
     inkscape:pagecheckerboard="1"
     inkscape:deskcolor="#d1d1d1"
     inkscape:zoom="22.627417"
     inkscape:cx="14.03165"
     inkscape:cy="19.600116"
     inkscape:current-layer="svg1" />
  <defs
     id="defs1">
    <inkscape:path-effect
       effect="fillet_chamfer"
       id="path-effect5"
       is_visible="true"
       lpeversion="1"
       nodesatellites_param="F,0,0,1,0,3.9513006,0,1 @ F,0,0,1,0,3.9642065,0,1 @ F,0,0,1,0,0,0,1 @ F,0,0,1,0,0,0,1"
       radius="0"
       unit="px"
       method="auto"
       mode="F"
       chamfer_steps="1"
       flexible="false"
       use_knot_distance="true"
       apply_no_radius="true"
       apply_with_radius="true"
       only_selected="false"
       hide_knots="false" />
    <inkscape:path-effect
       effect="fillet_chamfer"
       id="path-effect4"
       is_visible="true"
       lpeversion="1"
       nodesatellites_param="F,0,0,1,0,3.9736621,0,1 @ F,0,0,1,0,0,0,1 @ F,0,0,1,0,0,0,1 @ F,0,0,1,0,0,0,1"
       radius="0"
       unit="px"
       method="auto"
       mode="F"
       chamfer_steps="1"
       flexible="false"
       use_knot_distance="true"
       apply_no_radius="true"
       apply_with_radius="true"
       only_selected="false"
       hide_knots="false" />
    <inkscape:path-effect
       effect="fillet_chamfer"
       id="path-effect3"
       is_visible="true"
       lpeversion="1"
       nodesatellites_param="F,0,0,1,0,0,0,1 @ F,0,0,1,0,0,0,1 @ F,0,0,1,0,4.0070241,0,1 @ F,0,0,1,0,4.0159054,0,1"
       radius="0"
       unit="px"
       method="auto"
       mode="F"
       chamfer_steps="1"
       flexible="false"
       use_knot_distance="true"
       apply_no_radius="true"
       apply_with_radius="true"
       only_selected="false"
       hide_knots="false" />
    <inkscape:path-effect
       effect="fillet_chamfer"
       id="path-effect2"
       is_visible="true"
       lpeversion="1"
       nodesatellites_param="F,0,0,1,0,0,0,1 @ F,0,0,1,0,0,0,1 @ F,0,0,1,0,0,0,1 @ F,0,0,1,0,0,0,1"
       radius="0"
       unit="px"
       method="auto"
       mode="F"
       chamfer_steps="1"
       flexible="false"
       use_knot_distance="true"
       apply_no_radius="true"
       apply_with_radius="true"
       only_selected="false"
       hide_knots="false" />
    <clipPath
       id="clip-European">
      <rect
         width="40"
         height="40"
         id="rect1" />
    </clipPath>
    <inkscape:path-effect
       effect="fillet_chamfer"
       id="path-effect4-7"
       is_visible="true"
       lpeversion="1"
       nodesatellites_param="F,0,0,1,0,0,0,1 @ F,0,0,1,0,2.7335398,0,1 @ F,0,0,1,0,0,0,1 @ F,0,0,1,0,0,0,1"
       radius="0"
       unit="px"
       method="auto"
       mode="F"
       chamfer_steps="1"
       flexible="false"
       use_knot_distance="true"
       apply_no_radius="true"
       apply_with_radius="true"
       only_selected="false"
       hide_knots="false" />
  </defs>
  <rect
     id="Rectangle_4426"
     data-name="Rectangle 4426"
     width="32"
     height="32"
     rx="4"
     fill="#039"
     style="fill:#b31928;fill-opacity:1"
     transform="translate(4,4)" />
  <path
     style="fill:#e9f2fd;fill-opacity:1;stroke:#241f31;stroke-width:0;stroke-linecap:round"
     id="rect2"
     width="32"
     height="27.157211"
     x="4"
     y="4"
     inkscape:path-effect="#path-effect5"
     sodipodi:type="rect"
     d="M 7.9513006,4 H 32.035794 A 3.9642065,3.9642065 45 0 1 36,7.9642065 V 31.157211 H 4 V 7.9513006 A 3.9513006,3.9513006 135 0 1 7.9513006,4 Z" />
  <path
     sodipodi:type="star"
     style="fill:#b31928;fill-opacity:1;stroke:none;stroke-width:1.38044;stroke-linecap:round;stroke-linejoin:round;stroke-opacity:1;paint-order:stroke fill markers"
     id="path6"
     inkscape:flatsided="false"
     sodipodi:sides="5"
     sodipodi:cx="8.8388348"
     sodipodi:cy="8.7062521"
     sodipodi:r1="6.4966941"
     sodipodi:r2="2.5986774"
     sodipodi:arg1="-1.5707963"
     sodipodi:arg2="-0.9424778"
     inkscape:rounded="0"
     inkscape:randomized="0"
     d="m 8.8388349,2.209558 1.5274641,4.3943199 4.651259,0.094786 -3.707234,2.8106242 1.347172,4.4529004 L 8.8388348,11.304929 5.0201736,13.962188 6.3673457,9.5092876 2.6601116,6.6986631 7.3113705,6.6038779 Z"
     inkscape:transform-center-y="-0.4494071"
     transform="matrix(0.72440722,0,0,0.72440722,3.5407734,3.9960696)" />
  <path
     style="fill:#60422b;stroke-linecap:round;stroke-linejoin:round;paint-order:stroke fill markers;fill-opacity:1"
     d="m 17.675704,13.984241 1.789094,-1.240244 4.429697,-2.359384 1.820293,-0.431702 1.815438,0.026363 2.66509,1.213936 1.240231,0.15043 2.259765,-0.25012 L 36,10.66766 v 17.586275 l -1.894669,0.08005 -1.740218,-0.310503 -0.04099,-0.298825 0.910159,-0.669917 0.640624,-0.250032 1.160152,-0.08018 0.289091,-0.1309 -0.18952,-4.250075 -3.320379,-0.128783 1.050802,2.708979 -0.929649,2.189437 -0.419924,0.21094 -3.490267,0.25989 -0.169921,-0.369144 0.689459,-0.830072 0.859368,-0.38086 0.520507,-0.0098 0.110351,-0.339844 -3.070297,-2.939465 -2.070349,2.468761 -3.189408,2.490278 -1.439522,0.85929 -3.310553,0.08014 -1.080011,-0.250014 0.609366,-0.779308 1.07031,-0.619133 1.009762,-0.11136 0.730464,-0.839844 1.779293,-2.289059 1.021472,-3.419915 -2.601593,0.58018 -2.41995,1.749891 -1.148425,-0.451159 -1.03125,0.439511 -0.839841,0.17188 -0.68945,-0.32037 -0.08007,-0.621089 -0.589771,-0.378989 -0.640626,-0.08988 -0.890641,-0.80077 0.400386,-0.279295 1.480465,-1.941414 -0.14052,-0.839838 1.259748,-1.869143 0.08008,-0.919921 0.480473,-0.541013 0.580077,0.339842 0.25,0.121093 0.5,-0.16991 0.24024,-0.42969 0.500005,-0.480468 0.589845,0.279266 z"
     id="path1" />
</svg>
