<?xml version="1.0" encoding="UTF-8" standalone="no"?>
<svg
   width="40"
   height="40"
   viewBox="0 0 40 40"
   version="1.1"
   id="svg1"
   sodipodi:docname="North American_Alt.svg"
   inkscape:version="1.4 (e7c3feb100, 2024-10-09)"
   xml:space="preserve"
   xmlns:inkscape="http://www.inkscape.org/namespaces/inkscape"
   xmlns:sodipodi="http://sodipodi.sourceforge.net/DTD/sodipodi-0.dtd"
   xmlns="http://www.w3.org/2000/svg"
   xmlns:svg="http://www.w3.org/2000/svg"><sodipodi:namedview
     id="namedview1"
     pagecolor="#505050"
     bordercolor="#ffffff"
     borderopacity="1"
     inkscape:showpageshadow="0"
     inkscape:pageopacity="0"
     inkscape:pagecheckerboard="1"
     inkscape:deskcolor="#d1d1d1"
     inkscape:zoom="9.2"
     inkscape:cx="65.706522"
     inkscape:cy="25.380435"
     inkscape:current-layer="svg1"
     showgrid="true"><inkscape:grid
       id="grid1"
       units="px"
       originx="0"
       originy="0"
       spacingx="5"
       spacingy="5"
       empcolor="#0099e5"
       empopacity="0.30196078"
       color="#0099e5"
       opacity="0.14901961"
       empspacing="5"
       enabled="true"
       visible="true" /></sodipodi:namedview><defs
     id="defs1"><inkscape:path-effect
       effect="fillet_chamfer"
       id="path-effect4"
       is_visible="true"
       lpeversion="1"
       nodesatellites_param="F,0,0,1,0,3.9736621,0,1 @ F,0,0,1,0,0,0,1 @ F,0,0,1,0,0,0,1 @ F,0,0,1,0,0,0,1"
       radius="0"
       unit="px"
       method="auto"
       mode="F"
       chamfer_steps="1"
       flexible="false"
       use_knot_distance="true"
       apply_no_radius="true"
       apply_with_radius="true"
       only_selected="false"
       hide_knots="false" /><inkscape:path-effect
       effect="fillet_chamfer"
       id="path-effect3"
       is_visible="true"
       lpeversion="1"
       nodesatellites_param="F,0,0,1,0,0,0,1 @ F,0,0,1,0,0,0,1 @ F,0,0,1,0,4.0070241,0,1 @ F,0,0,1,0,4.0159054,0,1"
       radius="0"
       unit="px"
       method="auto"
       mode="F"
       chamfer_steps="1"
       flexible="false"
       use_knot_distance="true"
       apply_no_radius="true"
       apply_with_radius="true"
       only_selected="false"
       hide_knots="false" /><inkscape:path-effect
       effect="fillet_chamfer"
       id="path-effect2"
       is_visible="true"
       lpeversion="1"
       nodesatellites_param="F,0,0,1,0,0,0,1 @ F,0,0,1,0,0,0,1 @ F,0,0,1,0,0,0,1 @ F,0,0,1,0,0,0,1"
       radius="0"
       unit="px"
       method="auto"
       mode="F"
       chamfer_steps="1"
       flexible="false"
       use_knot_distance="true"
       apply_no_radius="true"
       apply_with_radius="true"
       only_selected="false"
       hide_knots="false" /><clipPath
       id="clip-European"><rect
         width="40"
         height="40"
         id="rect1" /></clipPath></defs><g
     id="European"
     clip-path="url(#clip-European)"><g
       id="European-2"
       data-name="European"
       transform="translate(4 4)"><rect
         id="Rectangle_4426"
         data-name="Rectangle 4426"
         width="32"
         height="32"
         rx="4"
         fill="#039"
         style="fill:#b31942;fill-opacity:1" /></g></g><rect
     style="fill:#ffffff;fill-opacity:1;stroke:#241f31;stroke-width:0;stroke-linecap:round"
     id="rect2"
     width="20"
     height="32"
     x="10"
     y="4.000001" /><path
     fill="#ff0000"
     d="m 19.583334,29.328704 0.208333,-3.99537 A 0.43981484,0.43981484 0 0 0 19.277778,24.87963 l -3.976852,0.699074 0.537037,-1.481481 a 0.30092593,0.30092593 0 0 0 -0.09259,-0.337964 l -4.356481,-3.527778 0.981481,-0.458333 a 0.30092593,0.30092593 0 0 0 0.157408,-0.365741 l -0.861111,-2.648148 2.509259,0.532408 a 0.30092593,0.30092593 0 0 0 0.337963,-0.175926 L 15,15.972222 l 1.958333,2.101852 a 0.30092593,0.30092593 0 0 0 0.513889,-0.263889 l -0.944444,-4.87037 1.513889,0.875 a 0.30092593,0.30092593 0 0 0 0.421296,-0.125 L 20,10.671296 l 1.537037,3.018519 a 0.30092593,0.30092593 0 0 0 0.421297,0.125 l 1.513888,-0.875 -0.944444,4.87037 a 0.30092593,0.30092593 0 0 0 0.513889,0.263889 L 25,15.972222 l 0.486112,1.143519 a 0.30092593,0.30092593 0 0 0 0.337963,0.175926 l 2.509258,-0.532408 -0.86111,2.648148 a 0.30092593,0.30092593 0 0 0 0.157407,0.365741 l 0.981481,0.458333 -4.356481,3.527778 a 0.30092593,0.30092593 0 0 0 -0.09259,0.337964 l 0.537037,1.481481 -3.976852,-0.699074 a 0.43981484,0.43981484 0 0 0 -0.513888,0.453704 l 0.208333,3.99537 z"
     id="path1"
     style="stroke-width:0.16129;fill:#b31942;fill-opacity:1" /></svg>
