<?xml version="1.0" encoding="UTF-8" standalone="no"?>
<svg
   width="40"
   height="40"
   viewBox="0 0 40 40"
   version="1.1"
   id="svg1"
   sodipodi:docname="Chicago.svg"
   inkscape:version="1.4 (e7c3feb100, 2024-10-09)"
   xml:space="preserve"
   xmlns:inkscape="http://www.inkscape.org/namespaces/inkscape"
   xmlns:sodipodi="http://sodipodi.sourceforge.net/DTD/sodipodi-0.dtd"
   xmlns="http://www.w3.org/2000/svg"
   xmlns:svg="http://www.w3.org/2000/svg"><sodipodi:namedview
     id="namedview1"
     pagecolor="#505050"
     bordercolor="#ffffff"
     borderopacity="1"
     inkscape:showpageshadow="0"
     inkscape:pageopacity="0"
     inkscape:pagecheckerboard="1"
     inkscape:deskcolor="#d1d1d1"
     inkscape:zoom="9.2"
     inkscape:cx="65.706522"
     inkscape:cy="25.380435"
     inkscape:current-layer="svg1"
     showgrid="true"><inkscape:grid
       id="grid1"
       units="px"
       originx="0"
       originy="0"
       spacingx="5"
       spacingy="5"
       empcolor="#0099e5"
       empopacity="0.30196078"
       color="#0099e5"
       opacity="0.14901961"
       empspacing="5"
       enabled="true"
       visible="true" /></sodipodi:namedview><defs
     id="defs1"><inkscape:path-effect
       effect="fillet_chamfer"
       id="path-effect4"
       is_visible="true"
       lpeversion="1"
       nodesatellites_param="F,0,0,1,0,3.9736621,0,1 @ F,0,0,1,0,0,0,1 @ F,0,0,1,0,0,0,1 @ F,0,0,1,0,0,0,1"
       radius="0"
       unit="px"
       method="auto"
       mode="F"
       chamfer_steps="1"
       flexible="false"
       use_knot_distance="true"
       apply_no_radius="true"
       apply_with_radius="true"
       only_selected="false"
       hide_knots="false" /><inkscape:path-effect
       effect="fillet_chamfer"
       id="path-effect3"
       is_visible="true"
       lpeversion="1"
       nodesatellites_param="F,0,0,1,0,0,0,1 @ F,0,0,1,0,0,0,1 @ F,0,0,1,0,4.0070241,0,1 @ F,0,0,1,0,4.0159054,0,1"
       radius="0"
       unit="px"
       method="auto"
       mode="F"
       chamfer_steps="1"
       flexible="false"
       use_knot_distance="true"
       apply_no_radius="true"
       apply_with_radius="true"
       only_selected="false"
       hide_knots="false" /><inkscape:path-effect
       effect="fillet_chamfer"
       id="path-effect2"
       is_visible="true"
       lpeversion="1"
       nodesatellites_param="F,0,0,1,0,0,0,1 @ F,0,0,1,0,0,0,1 @ F,0,0,1,0,0,0,1 @ F,0,0,1,0,0,0,1"
       radius="0"
       unit="px"
       method="auto"
       mode="F"
       chamfer_steps="1"
       flexible="false"
       use_knot_distance="true"
       apply_no_radius="true"
       apply_with_radius="true"
       only_selected="false"
       hide_knots="false" /><clipPath
       id="clip-European"><rect
         width="40"
         height="40"
         id="rect1" /></clipPath></defs><path
     d="M 34.642578,5 H 5.3574219 C 4.5264236,5.7319308 4,6.8004904 4,8 v 24 c 0,1.19951 0.5264236,2.268069 1.3574219,3 H 34.642578 C 35.473576,34.268069 36,33.19951 36,32 V 8 C 36,6.8004904 35.473576,5.7319308 34.642578,5 Z"
     style="fill:#3eb6e6"
     id="path4" /><path
     d="M 4,21.070312 5.1054687,20 4,18.929687 Z"
     style="fill:#ffffff;stroke:#241f31;stroke-width:0;stroke-linecap:round"
     id="path12" /><path
     d="M 36,18.929687 34.894531,20 36,21.070312 Z"
     style="fill:#ffffff;stroke:#241f31;stroke-width:0;stroke-linecap:round"
     id="path10" /><path
     d="m 4,10 v 7.394531 L 6.2421875,18.033203 7.3769531,13.511719 8.5117188,18.033203 12.996094,16.755859 9.6484375,20 12.996094,23.244141 8.5117188,21.966797 7.3769531,26.488281 6.2421875,21.966797 4,22.605469 V 30 H 36 V 22.605469 L 33.757812,21.966797 32.623047,26.488281 31.488281,21.966797 27.003906,23.244141 30.351562,20 l -3.347656,-3.244141 4.484375,1.277344 1.134766,-4.521484 1.134765,4.521484 L 36,17.394531 V 10 Z"
     style="fill:#ffffff;stroke:#241f31;stroke-width:0;stroke-linecap:round"
     id="path8" /><path
     sodipodi:type="star"
     style="fill:#c01c28;stroke-width:1.54135;stroke-linejoin:round;paint-order:stroke fill markers"
     id="path1"
     inkscape:flatsided="false"
     sodipodi:sides="6"
     sodipodi:cx="-5"
     sodipodi:cy="15"
     sodipodi:r1="5"
     sodipodi:r2="1.75"
     sodipodi:arg1="-1.5707963"
     sodipodi:arg2="-1.0471976"
     inkscape:rounded="0"
     inkscape:randomized="0"
     d="M -4.9999999,10 -4.1250001,13.484456 -0.66987291,12.5 -3.25,15 -0.66987305,17.5 -4.1249999,16.515544 -5.0000001,20 -5.8749999,16.515544 -9.3301271,17.5 -6.75,15 l -2.580127,-2.5 3.4551269,0.984456 z"
     transform="matrix(1.2975674,0,0,1.2975674,26.487838,0.53648931)" /><path
     d="M 4,22.605469 6.2421875,21.966797 7.3769531,26.488281 8.5117188,21.966797 12.996094,23.244141 9.6484375,20 12.996094,16.755859 8.5117188,18.033203 7.3769531,13.511719 6.2421875,18.033203 4,17.394531 v 1.535156 L 5.1054687,20 4,21.070312 Z"
     style="fill:#c01c28;stroke-width:1.54135;stroke-linejoin:round;paint-order:stroke fill markers"
     id="path11" /><path
     d="M 36,17.394531 33.757812,18.033203 32.623047,13.511719 31.488281,18.033203 27.003906,16.755859 30.351562,20 l -3.347656,3.244141 4.484375,-1.277344 1.134766,4.521484 1.134765,-4.521484 L 36,22.605469 V 21.070312 L 34.894531,20 36,18.929687 Z"
     style="fill:#c01c28;stroke-width:1.54135;stroke-linejoin:round;paint-order:stroke fill markers"
     id="path9" /><path
     d="M 8,4 C 6.9835096,4 6.0616277,4.379746 5.3574219,5 H 34.642578 C 33.938372,4.379746 33.01649,4 32,4 Z"
     style="fill:#ffffff;stroke-width:2.00001;stroke-linejoin:round;paint-order:stroke fill markers"
     id="path3" /><path
     d="M 34.642578,35 H 5.3574219 C 6.0616277,35.620254 6.9835096,36 8,36 h 24 c 1.01649,0 1.938372,-0.379746 2.642578,-1 z"
     style="fill:#ffffff;stroke-width:2.00001;stroke-linejoin:round;paint-order:stroke fill markers"
     id="path5" /></svg>
