<?xml version="1.0" encoding="UTF-8" standalone="no"?>
<svg
   width="40"
   height="40"
   viewBox="0 0 40 40"
   version="1.1"
   id="svg1"
   sodipodi:docname="United Kingdom.svg"
   inkscape:version="1.4 (e7c3feb100, 2024-10-09)"
   xmlns:inkscape="http://www.inkscape.org/namespaces/inkscape"
   xmlns:sodipodi="http://sodipodi.sourceforge.net/DTD/sodipodi-0.dtd"
   xmlns="http://www.w3.org/2000/svg"
   xmlns:svg="http://www.w3.org/2000/svg">
  <sodipodi:namedview
     id="namedview1"
     pagecolor="#505050"
     bordercolor="#ffffff"
     borderopacity="1"
     inkscape:showpageshadow="0"
     inkscape:pageopacity="0"
     inkscape:pagecheckerboard="1"
     inkscape:deskcolor="#d1d1d1"
     inkscape:zoom="13.010765"
     inkscape:cx="21.328493"
     inkscape:cy="28.706998"
     inkscape:current-layer="svg1" />
  <defs
     id="defs1">
    <inkscape:path-effect
       effect="fillet_chamfer"
       id="path-effect4"
       is_visible="true"
       lpeversion="1"
       nodesatellites_param="F,0,0,1,0,3.9736621,0,1 @ F,0,0,1,0,0,0,1 @ F,0,0,1,0,0,0,1 @ F,0,0,1,0,0,0,1"
       radius="0"
       unit="px"
       method="auto"
       mode="F"
       chamfer_steps="1"
       flexible="false"
       use_knot_distance="true"
       apply_no_radius="true"
       apply_with_radius="true"
       only_selected="false"
       hide_knots="false" />
    <inkscape:path-effect
       effect="fillet_chamfer"
       id="path-effect3"
       is_visible="true"
       lpeversion="1"
       nodesatellites_param="F,0,0,1,0,0,0,1 @ F,0,0,1,0,0,0,1 @ F,0,0,1,0,4.0070241,0,1 @ F,0,0,1,0,4.0159054,0,1"
       radius="0"
       unit="px"
       method="auto"
       mode="F"
       chamfer_steps="1"
       flexible="false"
       use_knot_distance="true"
       apply_no_radius="true"
       apply_with_radius="true"
       only_selected="false"
       hide_knots="false" />
    <inkscape:path-effect
       effect="fillet_chamfer"
       id="path-effect2"
       is_visible="true"
       lpeversion="1"
       nodesatellites_param="F,0,0,1,0,0,0,1 @ F,0,0,1,0,0,0,1 @ F,0,0,1,0,0,0,1 @ F,0,0,1,0,0,0,1"
       radius="0"
       unit="px"
       method="auto"
       mode="F"
       chamfer_steps="1"
       flexible="false"
       use_knot_distance="true"
       apply_no_radius="true"
       apply_with_radius="true"
       only_selected="false"
       hide_knots="false" />
    <clipPath
       id="clip-European">
      <rect
         width="40"
         height="40"
         id="rect1" />
    </clipPath>
    <clipPath
       id="t">
      <path
         d="m 25,15 h 25 v 15 z m 0,0 V 30 H 0 Z m 0,0 H 0 V 0 Z m 0,0 V 0 h 25 z"
         id="path1" />
    </clipPath>
    <clipPath
       id="t-5">
      <path
         d="m 25,15 h 25 v 15 z m 0,0 V 30 H 0 Z m 0,0 H 0 V 0 Z m 0,0 V 0 h 25 z"
         id="path1-6" />
    </clipPath>
  </defs>
  <path
     id="path100"
     style="display:inline;fill:#b31942;fill-opacity:1;stroke:none;stroke-width:0.2;stroke-dasharray:none;stroke-opacity:1"
     d="M 35.996094,7.9082031 25.347656,14.296875 v 0.355469 h 3.564453 L 36,10.400391 V 8 C 36,7.969018 35.9968,7.939012 35.9961,7.908203 Z M 4,10.400391 v 2.49414 l 2.9296875,1.757813 H 11.087891 Z M 11.087891,25.347656 4,29.599609 V 32 c 0,0.03098 0.00321,0.06099 0.00391,0.0918 l 10.648434,-6.388675 v -0.355469 z m 17.824218,0 L 36,29.599609 v -2.49414 l -2.929688,-1.757813 z"
     inkscape:label="ireland" />
  <path
     id="path99"
     style="display:inline;fill:#ffffff;stroke:none;stroke-width:0.2;stroke-dasharray:none;stroke-opacity:1"
     d="m 14.652344,4 v 9.048828 L 4.1914062,6.7734375 C 4.0766684,7.1319804 4.0128091,7.5128203 4.0039062,7.9082031 4.0032125,7.9390123 4,7.9690183 4,8 v 2.400391 l 7.087891,4.251953 H 6.9296875 L 4,12.894531 v 1.248047 l 0.8496094,0.509766 H 4 v 1.068359 1.070313 h 4.4160156 2.0781254 4.158203 2.138672 V 15.580078 14.332031 4 h -1.070313 z m 8.55664,0 v 10.332031 1.248047 1.210938 h 2.138672 4.158203 2.078125 H 36 V 15.720703 14.652344 H 35.150391 L 36,14.142578 v -1.248047 -2.49414 l -7.087891,4.251953 H 25.347656 V 14.296875 L 35.996094,7.9082031 c -0.0089,-0.3953828 -0.07276,-0.7762227 -0.1875,-1.1347656 L 25.347656,13.048828 V 4 H 24.279297 Z M 4,23.208984 v 1.070313 1.068359 H 4.8496094 L 4,25.857422 v 1.248047 2.49414 l 7.087891,-4.251953 h 3.564453 v 0.355469 L 4.0039062,32.091797 c 0.0089,0.395383 0.072762,0.776224 0.1875,1.134765 L 14.652344,26.951172 V 36 h 1.068359 1.070313 V 25.667969 24.419922 23.208984 H 14.652344 10.494141 8.4160156 Z m 19.208984,0 V 24.419922 25.667969 36 h 1.070313 1.068359 v -9.048828 l 10.460938,6.27539 c 0.114738,-0.358541 0.178597,-0.739382 0.1875,-1.134765 C 35.996787,32.060988 36,32.030982 36,32 v -2.400391 l -7.087891,-4.251953 h 4.158203 L 36,27.105469 V 25.857422 L 35.150391,25.347656 H 36 v -1.068359 -1.070313 h -4.416016 -2.078125 -4.158203 z"
     inkscape:label="border" />
  <path
     id="path69"
     style="display:inline;fill:#0a3161;fill-opacity:1;stroke:none;stroke-width:0.2;stroke-dasharray:none;stroke-opacity:1"
     d="M 8 4 C 6.2125793 4 4.7072162 5.1615892 4.1914062 6.7734375 L 14.652344 13.048828 L 14.652344 4 L 8 4 z M 25.347656 4 L 25.347656 13.048828 L 35.808594 6.7734375 C 35.292784 5.1615892 33.787421 4 32 4 L 25.347656 4 z M 4 14.142578 L 4 14.652344 L 4.8496094 14.652344 L 4 14.142578 z M 36 14.142578 L 35.150391 14.652344 L 36 14.652344 L 36 14.142578 z M 4 25.347656 L 4 25.857422 L 4.8496094 25.347656 L 4 25.347656 z M 35.150391 25.347656 L 36 25.857422 L 36 25.347656 L 35.150391 25.347656 z M 14.652344 26.951172 L 4.1914062 33.226562 C 4.7072161 34.838411 6.2125793 36 8 36 L 14.652344 36 L 14.652344 26.951172 z M 25.347656 26.951172 L 25.347656 36 L 32 36 C 33.787421 36 35.292784 34.838411 35.808594 33.226562 L 25.347656 26.951172 z "
     inkscape:label="bg" />
  <path
     id="path108"
     style="display:inline;fill:#b31942;fill-opacity:1;stroke:none;stroke-width:0.2"
     d="m 16.791016,4 v 10.332031 1.248047 1.210938 H 14.652344 10.494141 8.4160156 4 v 6.417968 h 4.4160156 2.0781254 4.158203 2.138672 V 24.419922 25.667969 36 h 6.417968 V 25.667969 24.419922 23.208984 h 2.138672 4.158203 2.078125 H 36 V 16.791016 H 31.583984 29.505859 25.347656 23.208984 V 15.580078 14.332031 4 Z"
     inkscape:label="england" />
</svg>
