<?xml version="1.0" encoding="UTF-8" standalone="no"?>
<svg
   width="40"
   height="40"
   viewBox="0 0 40 40"
   version="1.1"
   id="svg1"
   sodipodi:docname="United Kingdom.svg"
   inkscape:version="1.4 (e7c3feb100, 2024-10-09)"
   xmlns:inkscape="http://www.inkscape.org/namespaces/inkscape"
   xmlns:sodipodi="http://sodipodi.sourceforge.net/DTD/sodipodi-0.dtd"
   xmlns="http://www.w3.org/2000/svg"
   xmlns:svg="http://www.w3.org/2000/svg">
  <sodipodi:namedview
     id="namedview1"
     pagecolor="#505050"
     bordercolor="#ffffff"
     borderopacity="1"
     inkscape:showpageshadow="0"
     inkscape:pageopacity="0"
     inkscape:pagecheckerboard="1"
     inkscape:deskcolor="#d1d1d1"
     inkscape:zoom="13.010765"
     inkscape:cx="21.328493"
     inkscape:cy="28.706998"
     inkscape:current-layer="svg1" />
  <defs
     id="defs1">
    <inkscape:path-effect
       effect="fillet_chamfer"
       id="path-effect4"
       is_visible="true"
       lpeversion="1"
       nodesatellites_param="F,0,0,1,0,3.9736621,0,1 @ F,0,0,1,0,0,0,1 @ F,0,0,1,0,0,0,1 @ F,0,0,1,0,0,0,1"
       radius="0"
       unit="px"
       method="auto"
       mode="F"
       chamfer_steps="1"
       flexible="false"
       use_knot_distance="true"
       apply_no_radius="true"
       apply_with_radius="true"
       only_selected="false"
       hide_knots="false" />
    <inkscape:path-effect
       effect="fillet_chamfer"
       id="path-effect3"
       is_visible="true"
       lpeversion="1"
       nodesatellites_param="F,0,0,1,0,0,0,1 @ F,0,0,1,0,0,0,1 @ F,0,0,1,0,4.0070241,0,1 @ F,0,0,1,0,4.0159054,0,1"
       radius="0"
       unit="px"
       method="auto"
       mode="F"
       chamfer_steps="1"
       flexible="false"
       use_knot_distance="true"
       apply_no_radius="true"
       apply_with_radius="true"
       only_selected="false"
       hide_knots="false" />
    <inkscape:path-effect
       effect="fillet_chamfer"
       id="path-effect2"
       is_visible="true"
       lpeversion="1"
       nodesatellites_param="F,0,0,1,0,0,0,1 @ F,0,0,1,0,0,0,1 @ F,0,0,1,0,0,0,1 @ F,0,0,1,0,0,0,1"
       radius="0"
       unit="px"
       method="auto"
       mode="F"
       chamfer_steps="1"
       flexible="false"
       use_knot_distance="true"
       apply_no_radius="true"
       apply_with_radius="true"
       only_selected="false"
       hide_knots="false" />
    <clipPath
       id="clip-European">
      <rect
         width="40"
         height="40"
         id="rect1" />
    </clipPath>
  </defs>
  <path
     d="M 4.0253906,32.439453 16.464844,20 4.0253906,7.5605469 C 4.0097407,7.7049139 4,7.8513363 4,8 v 24 c 0,0.148664 0.00974,0.295086 0.025391,0.439453 z"
     style="fill:#0a3161"
     id="path16" />
  <path
     d="M 32.439453,35.974609 20,23.535156 7.5605469,35.974609 C 7.7049139,35.990259 7.8513363,36 8,36 h 24 c 0.148664,0 0.295086,-0.0097 0.439453,-0.02539 z"
     style="fill:#0a3161"
     id="path14" />
  <path
     d="M 23.535156,20 35.974609,32.439453 C 35.990259,32.295086 36,32.148664 36,32 V 8 c 0,-0.1486637 -0.0097,-0.2950861 -0.02539,-0.4394531 z"
     style="fill:#0a3161"
     id="path12" />
  <path
     d="M 7.5605469,4.0253906 20,16.464844 32.439453,4.0253906 C 32.295086,4.0097407 32.148664,4 32,4 H 8 c -0.1486637,0 -0.2950861,0.00974 -0.4394531,0.025391 z"
     style="fill:#0a3161"
     id="path8" />
  <path
     d="M 23.535156,20 20,23.535156 32.439453,35.974609 c 1.863219,-0.20198 3.333176,-1.671937 3.535156,-3.535156 z"
     style="fill:#ffffff;stroke:#241f31;stroke-width:0;stroke-linecap:round"
     id="path13" />
  <path
     d="M 7.5605469,4.0253906 C 5.6973284,4.2273706 4.2273706,5.6973284 4.0253906,7.5605469 L 16.464844,20 20,16.464844 Z"
     style="fill:#ffffff;stroke:#241f31;stroke-width:0;stroke-linecap:round"
     id="path9" />
  <path
     d="M 7.5605469,35.974609 20,23.535156 16.464844,20 4.0253906,32.439453 c 0.20198,1.863219 1.6719378,3.333176 3.5351563,3.535156 z"
     style="fill:#ffffff;stroke:#241f31;stroke-width:0;stroke-linecap:round"
     id="path15" />
  <path
     d="M 20,16.464844 16.464844,20 20,23.535156 23.535156,20 Z"
     style="fill:#ffffff;stroke:#241f31;stroke-width:0;stroke-linecap:round"
     id="path11" />
  <path
     d="M 20,16.464844 23.535156,20 35.974609,7.5605469 C 35.772629,5.6973284 34.302672,4.2273706 32.439453,4.0253906 Z"
     style="fill:#ffffff;stroke:#241f31;stroke-width:0;stroke-linecap:round"
     id="path10" />
  <rect
     style="fill:#ffffff;fill-opacity:1;stroke:#241f31;stroke-width:0;stroke-linecap:round"
     id="rect2-5"
     width="32"
     height="8"
     x="4"
     y="16" />
  <rect
     style="fill:#ffffff;fill-opacity:1;stroke:#241f31;stroke-width:0;stroke-linecap:round"
     id="rect2-5-5"
     width="32"
     height="8"
     x="-36"
     y="16"
     transform="rotate(-90)" />
  <rect
     style="fill:#b31942;fill-opacity:1;stroke:#241f31;stroke-width:0;stroke-linecap:round"
     id="rect2-5-8"
     width="32"
     height="6"
     x="4"
     y="17" />
  <rect
     style="fill:#b31942;fill-opacity:1;stroke:#241f31;stroke-width:0;stroke-linecap:round"
     id="rect2-5-8-1"
     width="32"
     height="6"
     x="-36"
     y="17"
     transform="rotate(-90)" />
</svg>
