<?xml version="1.0" encoding="UTF-8" standalone="no"?>
<svg
   width="40"
   height="40"
   viewBox="0 0 40 40"
   version="1.1"
   id="svg1"
   sodipodi:docname="New England.svg"
   inkscape:version="1.4 (e7c3feb100, 2024-10-09)"
   xmlns:inkscape="http://www.inkscape.org/namespaces/inkscape"
   xmlns:sodipodi="http://sodipodi.sourceforge.net/DTD/sodipodi-0.dtd"
   xmlns="http://www.w3.org/2000/svg"
   xmlns:svg="http://www.w3.org/2000/svg">
  <sodipodi:namedview
     id="namedview1"
     pagecolor="#505050"
     bordercolor="#ffffff"
     borderopacity="1"
     inkscape:showpageshadow="0"
     inkscape:pageopacity="0"
     inkscape:pagecheckerboard="1"
     inkscape:deskcolor="#d1d1d1"
     inkscape:zoom="22.627417"
     inkscape:cx="15.843611"
     inkscape:cy="15.40167"
     inkscape:current-layer="svg1" />
  <defs
     id="defs1">
    <inkscape:path-effect
       effect="fillet_chamfer"
       id="path-effect4"
       is_visible="true"
       lpeversion="1"
       nodesatellites_param="F,0,0,1,0,3.9736621,0,1 @ F,0,0,1,0,0,0,1 @ F,0,0,1,0,0,0,1 @ F,0,0,1,0,0,0,1"
       radius="0"
       unit="px"
       method="auto"
       mode="F"
       chamfer_steps="1"
       flexible="false"
       use_knot_distance="true"
       apply_no_radius="true"
       apply_with_radius="true"
       only_selected="false"
       hide_knots="false" />
    <inkscape:path-effect
       effect="fillet_chamfer"
       id="path-effect3"
       is_visible="true"
       lpeversion="1"
       nodesatellites_param="F,0,0,1,0,0,0,1 @ F,0,0,1,0,0,0,1 @ F,0,0,1,0,4.0070241,0,1 @ F,0,0,1,0,4.0159054,0,1"
       radius="0"
       unit="px"
       method="auto"
       mode="F"
       chamfer_steps="1"
       flexible="false"
       use_knot_distance="true"
       apply_no_radius="true"
       apply_with_radius="true"
       only_selected="false"
       hide_knots="false" />
    <inkscape:path-effect
       effect="fillet_chamfer"
       id="path-effect2"
       is_visible="true"
       lpeversion="1"
       nodesatellites_param="F,0,0,1,0,0,0,1 @ F,0,0,1,0,0,0,1 @ F,0,0,1,0,0,0,1 @ F,0,0,1,0,0,0,1"
       radius="0"
       unit="px"
       method="auto"
       mode="F"
       chamfer_steps="1"
       flexible="false"
       use_knot_distance="true"
       apply_no_radius="true"
       apply_with_radius="true"
       only_selected="false"
       hide_knots="false" />
    <clipPath
       id="clip-European">
      <rect
         width="40"
         height="40"
         id="rect1" />
    </clipPath>
    <inkscape:path-effect
       effect="fillet_chamfer"
       id="path-effect4-7"
       is_visible="true"
       lpeversion="1"
       nodesatellites_param="F,0,0,1,0,3.9736621,0,1 @ F,0,0,1,0,0,0,1 @ F,0,0,1,0,0,0,1 @ F,0,0,1,0,0,0,1"
       radius="0"
       unit="px"
       method="auto"
       mode="F"
       chamfer_steps="1"
       flexible="false"
       use_knot_distance="true"
       apply_no_radius="true"
       apply_with_radius="true"
       only_selected="false"
       hide_knots="false" />
  </defs>
  <rect
     id="Rectangle_4426"
     data-name="Rectangle 4426"
     width="32"
     height="32"
     rx="4"
     fill="#039"
     style="display:inline;fill:#b31928;fill-opacity:1"
     transform="translate(4,4)"
     x="0"
     y="0" />
  <path
     style="display:inline;fill:#e9f2fd;fill-opacity:1;stroke:#241f31;stroke-width:0;stroke-linecap:round"
     id="rect3-6"
     width="18.285"
     height="18.2855"
     x="4"
     y="4"
     sodipodi:type="rect"
     d="M 7.9736621,4 H 22.285 V 22.2855 H 4 V 7.9736621 A 3.9736621,3.9736621 135 0 1 7.9736621,4 Z"
     inkscape:path-effect="#path-effect4-7" />
  <path
     id="path3777"
     d="m 14.725744,20.286767 c 0,0 -0.265705,-0.430942 -0.410855,-0.736875 -0.378549,-0.7725 -0.447836,-2.141419 -0.544877,-3.539791 0.461877,0.988426 3.371341,2.998645 3.563513,2.741109 0.13814,-0.185172 -0.876213,-0.996075 -1.237293,-1.487488 -0.361077,-0.491415 -0.98344,-1.342378 -0.883061,-1.443085 0.844481,1.127213 4.704088,2.936619 4.716016,2.272731 0.0021,-0.116859 -0.920353,-0.642565 -1.812996,-1.492454 -0.956555,-0.91081 -1.842312,-2.268223 -1.985863,-2.469148 0.788878,0.811174 3.893441,1.457812 3.868494,0.983893 -0.0074,-0.140099 -2.720549,-0.919134 -4.514247,-3.323695 0.708697,0.652895 2.116221,0.629935 2.62743,0.478569 -0.0048,-0.199181 -0.927251,-0.512451 -1.7403,-1.169788 -0.697927,-0.564236 -1.227406,-1.1282477 -1.528589,-1.4638987 0.521921,0.4331627 1.486305,0.5847487 1.937554,0.4824187 0.01728,-0.06821 -0.71761,-0.5288247 -1.348718,-1.0986547 -0.631112,-0.569828 -1.165657,-1.2152135 -1.165657,-1.2152135 0.527932,0.3646478 1.228396,0.3404514 1.240109,0.2831935 0.02226,-0.063736 -0.846073,-0.588585 -1.329039,-1.0347012 -0.513815,-0.4746279 -1.034861,-1.0551568 -1.034861,-1.0551568 0,0 -0.521057,0.5805289 -1.034869,1.0551568 -0.482969,0.4461162 -1.351292,0.9709642 -1.329042,1.0347022 0.01172,0.057262 0.712175,0.081453 1.240108,-0.2831935 0,0 -0.534545,0.6453855 -1.165653,1.2152165 -0.631108,0.56983 -1.3659818,1.0304497 -1.3487118,1.0986627 0.5368648,0.09768 1.3701958,-0.1975845 1.9375568,-0.4824197 -0.301187,0.335651 -0.830665,0.8996637 -1.5285918,1.4638997 -0.813048,0.657336 -1.735542,0.970607 -1.740299,1.169787 0.5943246,0.183788 1.8560008,-0.01333 2.6274238,-0.478567 -1.7936928,2.40456 -4.5068695,3.183595 -4.5142457,3.323694 -0.028032,0.531797 2.7309652,-0.163535 3.8684957,-0.983893 -0.143554,0.200924 -1.0293098,1.558338 -1.9858638,2.469148 -0.8926403,0.849889 -1.8150941,1.375588 -1.8129961,1.492454 0.00999,0.556316 3.3378789,-0.770026 4.7160149,-2.272748 0.100379,0.100705 -0.521981,0.95167 -0.883061,1.443083 -0.3610788,0.491415 -1.3754328,1.302317 -1.2372888,1.487488 0.1811429,0.242763 2.5793998,-1.338292 3.5635148,-2.741116 -0.09704,1.398371 -0.166328,2.767291 -0.544877,3.539791 -0.145147,0.305933 -0.410871,0.736874 -0.410871,0.736874 z"
     fill="#006338"
     stroke-width="0.995538"
     style="display:inline;fill:#006338;fill-opacity:1"
     sodipodi:nodetypes="ccccscscccsccscccccccccscsccccccscsccccc" />
</svg>
